<mxfile host="app.diagrams.net" modified="2024-03-29T10:42:28.468Z" agent="Mozilla/5.0 (Windows NT 10.0; Win64; x64) AppleWebKit/537.36 (KHTML, like Gecko) Chrome/123.0.0.0 Safari/537.36" etag="wqh0p3-due_ygHjPSPbm" version="23.1.5" type="github">
  <diagram name="Page-1" id="_D295aHM6DxRnYINNuFs">
    <mxGraphModel dx="899" dy="406" grid="1" gridSize="10" guides="1" tooltips="1" connect="1" arrows="1" fold="1" page="1" pageScale="1" pageWidth="827" pageHeight="1169" math="0" shadow="0">
      <root>
        <mxCell id="0" />
        <mxCell id="1" parent="0" />
        <mxCell id="NOB421JktoTjcJMpFMy6-7" style="rounded=0;orthogonalLoop=1;jettySize=auto;html=1;shape=link;strokeColor=#666600;" parent="1" target="NOB421JktoTjcJMpFMy6-27" edge="1">
          <mxGeometry relative="1" as="geometry">
            <mxPoint x="490" y="573" as="sourcePoint" />
          </mxGeometry>
        </mxCell>
        <mxCell id="NOB421JktoTjcJMpFMy6-8" value="5. Send &amp;amp; Receive Email" style="edgeLabel;html=1;align=center;verticalAlign=middle;resizable=0;points=[];rotation=30;" parent="NOB421JktoTjcJMpFMy6-7" vertex="1" connectable="0">
          <mxGeometry x="-0.08" y="1" relative="1" as="geometry">
            <mxPoint as="offset" />
          </mxGeometry>
        </mxCell>
        <mxCell id="NOB421JktoTjcJMpFMy6-9" style="edgeStyle=orthogonalEdgeStyle;rounded=0;orthogonalLoop=1;jettySize=auto;html=1;entryX=0;entryY=0.5;entryDx=0;entryDy=0;shape=link;strokeColor=#FF3333;" parent="1" source="NOB421JktoTjcJMpFMy6-10" target="NOB421JktoTjcJMpFMy6-24" edge="1">
          <mxGeometry relative="1" as="geometry">
            <Array as="points">
              <mxPoint x="400" y="560" />
              <mxPoint x="400" y="345" />
            </Array>
          </mxGeometry>
        </mxCell>
        <mxCell id="NOB421JktoTjcJMpFMy6-10" value="Internet" style="image;aspect=fixed;perimeter=ellipsePerimeter;html=1;align=center;shadow=0;dashed=0;spacingTop=3;image=img/lib/active_directory/internet_cloud.svg;" parent="1" vertex="1">
          <mxGeometry x="444" y="557.5" width="50" height="31.5" as="geometry" />
        </mxCell>
        <mxCell id="NOB421JktoTjcJMpFMy6-16" value="TheHive" style="image;aspect=fixed;perimeter=ellipsePerimeter;html=1;align=center;shadow=0;dashed=0;spacingTop=3;image=img/lib/active_directory/internet_cloud.svg;" parent="1" vertex="1">
          <mxGeometry x="690" y="557.5" width="50" height="31.5" as="geometry" />
        </mxCell>
        <mxCell id="NOB421JktoTjcJMpFMy6-17" style="rounded=0;orthogonalLoop=1;jettySize=auto;html=1;shape=link;strokeColor=#33FF33;exitX=0.25;exitY=1;exitDx=0;exitDy=0;entryX=0.25;entryY=0;entryDx=0;entryDy=0;horizontal=1;edgeStyle=orthogonalEdgeStyle;" parent="1" edge="1">
          <mxGeometry relative="1" as="geometry">
            <mxPoint x="469.8624783885622" y="356.7010259337251" as="sourcePoint" />
            <mxPoint x="469.2174085396649" y="557.4966311015646" as="targetPoint" />
          </mxGeometry>
        </mxCell>
        <mxCell id="NOB421JktoTjcJMpFMy6-18" value="2. Enrich IOCs" style="edgeLabel;html=1;align=center;verticalAlign=middle;resizable=0;points=[];rotation=270;" parent="NOB421JktoTjcJMpFMy6-17" vertex="1" connectable="0">
          <mxGeometry x="0.32" y="8" relative="1" as="geometry">
            <mxPoint x="-7" y="-21" as="offset" />
          </mxGeometry>
        </mxCell>
        <mxCell id="NOB421JktoTjcJMpFMy6-19" style="rounded=0;orthogonalLoop=1;jettySize=auto;html=1;entryX=0.5;entryY=0;entryDx=0;entryDy=0;shape=link;strokeColor=#66B2FF;" parent="1" target="NOB421JktoTjcJMpFMy6-16" edge="1">
          <mxGeometry relative="1" as="geometry">
            <mxPoint x="490" y="350" as="sourcePoint" />
          </mxGeometry>
        </mxCell>
        <mxCell id="NOB421JktoTjcJMpFMy6-20" value="3. Send Alerts" style="edgeLabel;html=1;align=center;verticalAlign=middle;resizable=0;points=[];rotation=43;" parent="NOB421JktoTjcJMpFMy6-19" vertex="1" connectable="0">
          <mxGeometry x="-0.0239" y="-1" relative="1" as="geometry">
            <mxPoint x="6" as="offset" />
          </mxGeometry>
        </mxCell>
        <mxCell id="NOB421JktoTjcJMpFMy6-21" style="rounded=0;orthogonalLoop=1;jettySize=auto;html=1;shape=link;strokeColor=#666600;edgeStyle=orthogonalEdgeStyle;" parent="1" edge="1">
          <mxGeometry relative="1" as="geometry">
            <mxPoint x="480" y="360" as="sourcePoint" />
            <mxPoint x="480" y="560" as="targetPoint" />
            <Array as="points">
              <mxPoint x="480" y="340" />
              <mxPoint x="550" y="340" />
              <mxPoint x="550" y="560" />
            </Array>
          </mxGeometry>
        </mxCell>
        <mxCell id="NOB421JktoTjcJMpFMy6-22" value="4. Send Email" style="edgeLabel;html=1;align=center;verticalAlign=middle;resizable=0;points=[];rotation=270;" parent="NOB421JktoTjcJMpFMy6-21" vertex="1" connectable="0">
          <mxGeometry x="-0.02" y="-1" relative="1" as="geometry">
            <mxPoint x="1" y="12" as="offset" />
          </mxGeometry>
        </mxCell>
        <mxCell id="NOB421JktoTjcJMpFMy6-24" value="Shuffle" style="image;aspect=fixed;perimeter=ellipsePerimeter;html=1;align=center;shadow=0;dashed=0;spacingTop=3;image=img/lib/active_directory/internet_cloud.svg;verticalAlign=top;horizontal=1;" parent="1" vertex="1">
          <mxGeometry x="446" y="330" width="47.62" height="30" as="geometry" />
        </mxCell>
        <mxCell id="NOB421JktoTjcJMpFMy6-25" style="edgeStyle=orthogonalEdgeStyle;rounded=0;orthogonalLoop=1;jettySize=auto;html=1;entryX=1;entryY=1;entryDx=0;entryDy=0;shape=link;strokeColor=#FF3333;" parent="1" source="NOB421JktoTjcJMpFMy6-27" target="NOB421JktoTjcJMpFMy6-10" edge="1">
          <mxGeometry relative="1" as="geometry">
            <Array as="points">
              <mxPoint x="490" y="720" />
              <mxPoint x="490" y="584" />
            </Array>
          </mxGeometry>
        </mxCell>
        <mxCell id="NOB421JktoTjcJMpFMy6-26" value="6. Send Response Action" style="edgeLabel;html=1;align=center;verticalAlign=middle;resizable=0;points=[];" parent="NOB421JktoTjcJMpFMy6-25" vertex="1" connectable="0">
          <mxGeometry x="-0.36" relative="1" as="geometry">
            <mxPoint as="offset" />
          </mxGeometry>
        </mxCell>
        <mxCell id="NOB421JktoTjcJMpFMy6-27" value="Soc Analyst" style="fontColor=#0066CC;verticalAlign=top;verticalLabelPosition=bottom;labelPosition=center;align=center;html=1;outlineConnect=0;fillColor=#CCCCCC;strokeColor=#6881B3;gradientColor=none;gradientDirection=north;strokeWidth=2;shape=mxgraph.networks.pc;" parent="1" vertex="1">
          <mxGeometry x="710" y="708.75" width="80" height="60" as="geometry" />
        </mxCell>
        <mxCell id="NOB421JktoTjcJMpFMy6-30" value="" style="edgeStyle=orthogonalEdgeStyle;rounded=0;orthogonalLoop=1;jettySize=auto;html=1;entryX=0;entryY=0.5;entryDx=0;entryDy=0;" parent="1" source="NOB421JktoTjcJMpFMy6-31" target="NOB421JktoTjcJMpFMy6-37" edge="1">
          <mxGeometry relative="1" as="geometry">
            <mxPoint x="240" y="1019" as="targetPoint" />
          </mxGeometry>
        </mxCell>
        <mxCell id="NOB421JktoTjcJMpFMy6-31" value="Outlook mails" style="whiteSpace=wrap;html=1;" parent="1" vertex="1">
          <mxGeometry x="270" y="994" width="90" height="50" as="geometry" />
        </mxCell>
        <mxCell id="NOB421JktoTjcJMpFMy6-34" value="" style="edgeStyle=orthogonalEdgeStyle;rounded=0;orthogonalLoop=1;jettySize=auto;html=1;" parent="1" source="NOB421JktoTjcJMpFMy6-37" target="NOB421JktoTjcJMpFMy6-38" edge="1">
          <mxGeometry relative="1" as="geometry" />
        </mxCell>
        <mxCell id="NOB421JktoTjcJMpFMy6-35" value="" style="edgeStyle=orthogonalEdgeStyle;rounded=0;orthogonalLoop=1;jettySize=auto;html=1;" parent="1" source="NOB421JktoTjcJMpFMy6-37" target="NOB421JktoTjcJMpFMy6-39" edge="1">
          <mxGeometry relative="1" as="geometry" />
        </mxCell>
        <mxCell id="NOB421JktoTjcJMpFMy6-36" value="" style="edgeStyle=orthogonalEdgeStyle;rounded=0;orthogonalLoop=1;jettySize=auto;html=1;" parent="1" source="NOB421JktoTjcJMpFMy6-37" target="NOB421JktoTjcJMpFMy6-40" edge="1">
          <mxGeometry relative="1" as="geometry" />
        </mxCell>
        <mxCell id="NOB421JktoTjcJMpFMy6-37" value="Shuffle&lt;br&gt;Receive Wazuh Alert &amp;amp; Send Responsive Actions" style="whiteSpace=wrap;html=1;" parent="1" vertex="1">
          <mxGeometry x="467.5" y="994" width="170" height="50" as="geometry" />
        </mxCell>
        <mxCell id="NOB421JktoTjcJMpFMy6-38" value="Virustotal and Yara&lt;br&gt;Enrich IOCs" style="whiteSpace=wrap;html=1;" parent="1" vertex="1">
          <mxGeometry x="467.5" y="869" width="170" height="50" as="geometry" />
        </mxCell>
        <mxCell id="NOB421JktoTjcJMpFMy6-39" value="TheHive&lt;br&gt;Create Alert &amp;amp; Case Management" style="whiteSpace=wrap;html=1;" parent="1" vertex="1">
          <mxGeometry x="467.5" y="1119" width="170" height="50" as="geometry" />
        </mxCell>
        <mxCell id="NOB421JktoTjcJMpFMy6-40" value="Email&lt;br&gt;Send Email &amp;amp; Responsive Actions" style="whiteSpace=wrap;html=1;" parent="1" vertex="1">
          <mxGeometry x="710" y="994" width="170" height="50" as="geometry" />
        </mxCell>
        <mxCell id="9umW0igtb12UseN2ZhyS-3" value="" style="shape=image;html=1;verticalAlign=top;verticalLabelPosition=bottom;labelBackgroundColor=#ffffff;imageAspect=0;aspect=fixed;image=https://cdn0.iconfinder.com/data/icons/logos-microsoft-office-365/128/Microsoft_Office-07-128.png" vertex="1" parent="1">
          <mxGeometry x="444.81" y="130" width="50" height="50" as="geometry" />
        </mxCell>
        <mxCell id="9umW0igtb12UseN2ZhyS-5" style="rounded=0;orthogonalLoop=1;jettySize=auto;html=1;shape=link;edgeStyle=orthogonalEdgeStyle;" edge="1" parent="1" source="9umW0igtb12UseN2ZhyS-3">
          <mxGeometry relative="1" as="geometry">
            <mxPoint x="470" y="330" as="targetPoint" />
            <Array as="points">
              <mxPoint x="469" y="285" />
              <mxPoint x="470" y="285" />
            </Array>
          </mxGeometry>
        </mxCell>
        <mxCell id="9umW0igtb12UseN2ZhyS-7" value="1. Collect Emails" style="edgeLabel;html=1;align=center;verticalAlign=middle;resizable=0;points=[];rotation=270;" vertex="1" connectable="0" parent="9umW0igtb12UseN2ZhyS-5">
          <mxGeometry x="-0.08" y="1" relative="1" as="geometry">
            <mxPoint as="offset" />
          </mxGeometry>
        </mxCell>
      </root>
    </mxGraphModel>
  </diagram>
</mxfile>
